# Blender v2.78 (sub 0) OBJ File: 'Road.blend'
# www.blender.org
mtllib Crossroads.mtl
o Crossroads_Plane
v -62.256290 -0.174618 67.779945
v 12.478883 -0.174618 31.272566
v -62.233932 -0.174620 -5.836782
v 12.533593 -0.174620 -42.359962
v -25.995865 -0.174618 50.067070
v -50.668545 -0.174620 -11.486362
v 0.818790 -0.174618 36.968376
v -23.853870 -0.174620 -24.585051
v -62.233932 -0.174620 -5.836782
v 12.504277 -0.174619 -2.906600
v -45.235996 -0.174619 2.066765
v -18.421326 -0.174619 -11.031925
v -62.243000 -0.174619 24.005865
v 12.482108 -0.174618 26.931889
v -31.584171 -0.174618 36.125355
v -4.769512 -0.174618 23.026661
vt 0.5845 0.7154
vt 0.9932 0.9960
vt 0.5128 0.8368
vt 0.0061 0.6688
vt 0.1588 0.7194
vt 0.0061 0.6688
vt 0.2305 0.5980
vt 0.7648 0.4103
vt 0.4107 0.2930
vt 0.0060 0.4015
vt 0.9928 0.6426
vt 0.8385 0.2854
vt 0.9925 0.3753
vt 0.0058 0.0094
vt 0.4845 0.1681
vt 0.9925 0.3364
vn -0.0000 1.0000 -0.0000
vn 0.0000 0.0000 1.0000
g Crossroads_Plane_Crossroads
usemtl Crossroads
s off
f 12/1/1 4/2/1 8/3/1
f 9/4/2 6/5/2 3/6/2
f 12/1/1 6/5/1 11/7/1
f 16/8/1 11/7/1 15/9/1
f 13/10/1 11/7/1 9/4/1
f 16/8/1 10/11/1 12/1/1
f 7/12/1 14/13/1 16/8/1
f 1/14/1 15/9/1 13/10/1
f 7/12/1 15/9/1 5/15/1
f 12/1/1 10/11/1 4/2/1
f 9/4/1 11/7/1 6/5/1
f 12/1/1 8/3/1 6/5/1
f 16/8/1 12/1/1 11/7/1
f 13/10/1 15/9/1 11/7/1
f 16/8/1 14/13/1 10/11/1
f 7/12/1 2/16/1 14/13/1
f 1/14/1 5/15/1 15/9/1
f 7/12/1 16/8/1 15/9/1
